<svg width="38" height="39" viewBox="0 0 38 39" fill="none" xmlns="http://www.w3.org/2000/svg">
<path d="M20.2553 3.72614C20.5522 3.4215 20.9548 3.25037 21.3747 3.25037C21.7945 3.25037 22.1972 3.4215 22.4941 3.72614L27.2441 8.60114C27.5409 8.90588 27.7077 9.31913 27.7077 9.75002C27.7077 10.1809 27.5409 10.5942 27.2441 10.8989L22.4941 15.7739C22.1955 16.0699 21.7955 16.2337 21.3804 16.23C20.9652 16.2263 20.5681 16.0554 20.2745 15.7541C19.981 15.4528 19.8145 15.0452 19.8109 14.6192C19.8072 14.1931 19.9668 13.7826 20.2553 13.4761L22.3025 11.375H19.7913C14.1737 11.375 9.49967 16.172 9.49967 21.9375C9.49967 27.703 14.1737 32.5 19.7913 32.5C25.409 32.5 30.083 27.703 30.083 21.9375C30.083 21.5065 30.2498 21.0932 30.5468 20.7885C30.8437 20.4837 31.2464 20.3125 31.6663 20.3125C32.0863 20.3125 32.489 20.4837 32.7859 20.7885C33.0829 21.0932 33.2497 21.5065 33.2497 21.9375C33.2497 29.497 27.157 35.75 19.7913 35.75C12.4257 35.75 6.33301 29.497 6.33301 21.9375C6.33301 14.378 12.4257 8.12502 19.7913 8.12502H22.3025L20.2553 6.02389C19.9584 5.71916 19.7917 5.30591 19.7917 4.87502C19.7917 4.44413 19.9584 4.03088 20.2553 3.72614Z" fill="white"/>
</svg>
